<svg width="88" height="36" viewBox="0 0 88 36" fill="none" xmlns="http://www.w3.org/2000/svg">
<path d="M41.2887 17.6784V27.764H38.0669V2.85711H46.6118C47.6318 2.83595 48.6459 3.0156 49.5955 3.38568C50.5452 3.75576 51.4117 4.30896 52.145 5.01333C52.8857 5.67495 53.4751 6.48634 53.8738 7.39299C54.2725 8.29964 54.4711 9.28054 54.4563 10.2697C54.4775 11.2643 54.282 12.2516 53.883 13.164C53.4841 14.0764 52.8912 14.8924 52.145 15.556C50.6508 16.9709 48.8064 17.6777 46.6118 17.6764H41.2887V17.6784ZM41.2887 5.92352V14.618H46.6919C47.2842 14.6354 47.8737 14.5299 48.4226 14.3081C48.9715 14.0864 49.4678 13.7533 49.8797 13.3302C50.2894 12.9346 50.6151 12.4614 50.8375 11.9387C51.0599 11.4159 51.1745 10.8541 51.1745 10.2866C51.1745 9.71913 51.0599 9.15739 50.8375 8.63462C50.6151 8.11186 50.2894 7.63868 49.8797 7.24309C49.473 6.81106 48.9784 6.46982 48.4288 6.24198C47.8792 6.01415 47.2872 5.90491 46.6919 5.92153H41.2887V5.92352Z" fill="#5F6368"/>
<path d="M61.8814 10.1664C64.2628 10.1664 66.1425 10.7984 67.5207 12.0623C68.8988 13.3263 69.5872 15.0592 69.5859 17.2611V27.764H66.5041V25.3991H66.364C65.0299 27.3467 63.2555 28.3204 61.0409 28.3204C59.1505 28.3204 57.5689 27.764 56.2962 26.6511C55.6854 26.1403 55.1971 25.5006 54.8668 24.7787C54.5366 24.0567 54.3727 23.2706 54.3871 22.4778C54.3871 20.7144 55.0582 19.312 56.4003 18.2707C57.7424 17.2293 59.5341 16.7073 61.7754 16.7047C63.6885 16.7047 65.264 17.0524 66.5021 17.748V17.0167C66.5057 16.4762 66.3882 15.9416 66.158 15.4518C65.9279 14.962 65.5908 14.5292 65.1713 14.1848C64.3193 13.4214 63.209 13.0049 62.0615 13.0182C60.2618 13.0182 58.8377 13.7721 57.7891 15.2798L54.9514 13.5051C56.5123 11.2793 58.8223 10.1664 61.8814 10.1664ZM57.713 22.5473C57.7109 22.9545 57.8067 23.3564 57.9926 23.7193C58.1785 24.0823 58.449 24.3959 58.7816 24.634C59.4942 25.1906 60.3786 25.4855 61.2851 25.4687C62.6446 25.4664 63.9479 24.929 64.9092 23.9742C65.9764 22.9766 66.5101 21.8061 66.5101 20.4627C65.5055 19.6677 64.1047 19.2703 62.3077 19.2703C60.9989 19.2703 59.9076 19.5836 59.0338 20.2103C58.1513 20.8462 57.713 21.6193 57.713 22.5473Z" fill="#5F6368"/>
<path d="M87.2743 10.7229L76.5161 35.276H73.1902L77.1825 26.6849L70.1084 10.7229H73.6104L78.7234 22.9647H78.7934L83.7663 10.7229H87.2743Z" fill="#5F6368"/>
<path d="M28.2695 15.5044C28.2708 14.5293 28.1877 13.5559 28.0214 12.595H14.4336V18.1058H22.2161C22.0568 18.9859 21.7197 19.8249 21.2252 20.5722C20.7306 21.3195 20.0888 21.9596 19.3384 22.454V26.0311H23.9831C26.7026 23.541 28.2695 19.8586 28.2695 15.5044Z" fill="#4285F4"/>
<path d="M14.4325 29.4871C18.3207 29.4871 21.5946 28.2192 23.982 26.0332L19.3373 22.456C18.0446 23.3265 16.3796 23.8233 14.4325 23.8233C10.6743 23.8233 7.48449 21.3074 6.34383 17.9171H1.55908V21.6035C2.75831 23.9733 4.59718 25.9655 6.87042 27.3576C9.14365 28.7497 11.7618 29.487 14.4325 29.4871Z" fill="#34A853"/>
<path d="M6.34437 17.917C5.74135 16.1404 5.74135 14.2165 6.34437 12.44V8.75354H1.55962C0.550788 10.7471 0.0253906 12.9473 0.0253906 15.1785C0.0253906 17.4096 0.550788 19.6099 1.55962 21.6034L6.34437 17.917Z" fill="#FBBC04"/>
<path d="M14.4325 6.53371C16.4872 6.50037 18.4727 7.27135 19.9597 8.67999L24.072 4.59609C21.4644 2.16378 18.0098 0.828403 14.4325 0.869896C11.7618 0.870017 9.14365 1.60729 6.87042 2.99942C4.59718 4.39154 2.75831 6.38371 1.55908 8.75352L6.34383 12.44C7.48449 9.04963 10.6743 6.53371 14.4325 6.53371Z" fill="#EA4335"/>
</svg>
