<svg width="45" height="53" viewBox="0 0 45 53" fill="none" xmlns="http://www.w3.org/2000/svg">
<path d="M40.5018 13.2255C40.5018 13.5043 40.5018 13.7831 40.223 14.0619C37.9927 25.2134 30.7442 28.8377 21.2654 28.8377H16.526C15.4108 28.8377 14.2957 29.674 14.2957 30.7892L11.7866 46.4013L11.229 50.862C11.229 51.6983 11.7866 52.2559 12.3441 52.2559H20.9866C22.1018 52.2559 22.9381 51.4195 22.9381 50.5832V50.0256L24.6109 39.9892V39.4316C24.8896 38.3165 25.726 37.7589 26.5624 37.7589H27.9563C36.32 37.7589 42.7321 34.4134 44.4048 24.6559C45.2412 20.474 44.6836 17.1286 42.7321 14.8983C42.1745 14.3407 41.3382 13.7831 40.5018 13.2255Z" fill="#2199D6"/>
<path d="M38.2697 12.3891C37.9909 12.3891 37.7122 12.1103 37.1546 12.1103C36.8758 12.1103 36.3182 11.8315 36.0394 11.8315C34.6455 11.5527 33.2515 11.5527 31.8576 11.5527H19.0333C18.7546 11.5527 18.4758 11.5527 18.197 11.8315C17.6394 12.1103 17.0818 12.6679 17.0818 13.2255L14.2939 30.5104V31.0679C14.5727 29.9528 15.4091 29.1164 16.5242 29.1164H21.2637C30.7425 29.1164 37.9909 25.2134 40.2212 14.3406C40.2212 14.0618 40.2212 13.783 40.5 13.5043C39.9425 13.2255 39.3849 12.9467 38.8273 12.6679C38.5485 12.3891 38.2697 12.3891 38.2697 12.3891Z" fill="#252C5E"/>
<path d="M17.0823 13.2255C17.0823 12.6679 17.6398 12.1103 18.1974 11.8315C18.4762 11.8315 18.755 11.5528 19.0338 11.5528H31.858C33.252 11.5528 34.9247 11.5528 36.0399 11.8315C36.3186 11.8315 36.8763 11.8315 37.155 12.1103C37.4338 12.1103 37.7126 12.3891 38.2702 12.3891C38.549 12.3891 38.549 12.3891 38.8277 12.6679C39.3853 12.9467 39.9429 13.2255 40.5005 13.5043C41.0581 9.32245 40.5005 6.53456 38.2702 4.02547C35.7611 1.23758 31.3005 0.122437 25.7247 0.122437H9.2762C8.16105 0.122437 7.04589 0.958793 7.04589 2.07395L0.35498 45.0074C0.35498 45.8437 0.912557 46.6801 1.74892 46.6801H11.7853L14.2944 30.5104L17.0823 13.2255Z" fill="#263577"/>
</svg>
