<svg width="88" height="27" viewBox="0 0 88 27" fill="none" xmlns="http://www.w3.org/2000/svg">
<path d="M81.3614 0.42984H75.9218C74.2772 0.42984 73.0122 0.935855 72.2532 2.5804L61.8799 26.2366H69.2171C69.2171 26.2366 70.4821 23.074 70.7351 22.315C71.4942 22.315 78.7049 22.315 79.7169 22.315C79.9699 23.2005 80.6024 26.1101 80.6024 26.1101H87.1806L81.3614 0.42984ZM72.7592 17.0018C73.3917 15.4838 75.5423 9.79111 75.5423 9.79111C75.5423 9.91761 76.1748 8.27307 76.4278 7.38754L76.9338 9.66461C76.9338 9.66461 78.3254 15.8633 78.5784 17.1283H72.7592V17.0018Z" fill="#3362AB"/>
<path d="M62.387 17.7609C62.387 23.0741 57.5799 26.6162 50.1162 26.6162C46.9536 26.6162 43.9175 25.9837 42.2729 25.2246L43.285 19.4055L44.1705 19.785C46.4476 20.797 47.9656 21.1765 50.7487 21.1765C52.7727 21.1765 54.9233 20.4175 54.9233 18.6465C54.9233 17.5079 54.0378 16.7489 51.2547 15.4839C48.5981 14.2188 45.056 12.1948 45.056 8.52616C45.056 3.46601 49.9897 0.050415 56.9474 0.050415C59.6039 0.050415 61.881 0.55643 63.2726 1.18895L62.2605 6.75511L61.7545 6.24909C60.4895 5.74308 58.8449 5.23706 56.4414 5.23706C53.7848 5.36357 52.5197 6.5021 52.5197 7.51413C52.5197 8.65266 54.0378 9.53819 56.4414 10.6767C60.4895 12.5743 62.387 14.7248 62.387 17.7609Z" fill="#3362AB"/>
<path d="M0.65332 0.682986L0.779824 0.176971H11.6591C13.1772 0.176971 14.3157 0.682986 14.6952 2.32753L17.0988 13.7129C14.6952 7.64069 9.12906 2.70704 0.65332 0.682986Z" fill="#F9B50B"/>
<path d="M32.4065 0.429909L21.4007 26.1102H13.937L7.61182 4.60453C12.1659 7.51411 15.9611 12.0682 17.3526 15.2308L18.1116 17.8874L24.9428 0.303406H32.4065V0.429909Z" fill="#3362AB"/>
<path d="M35.3148 0.303406H42.2725L37.8449 26.1102H30.8872L35.3148 0.303406Z" fill="#3362AB"/>
</svg>
