<svg width="169" height="183" viewBox="0 0 169 183" fill="none" xmlns="http://www.w3.org/2000/svg">
<path d="M56.375 183.125H0V122.083H56.375V183.125Z" fill="white"/>
<path d="M56.375 183.125V122.083L0 183.125H56.375Z" fill="#47CE55"/>
<path d="M112.75 183.125H56.375V122.083H112.75V183.125Z" fill="white"/>
<path d="M112.75 183.125H56.375V122.083H112.75V183.125Z" fill="#0B6773"/>
<path d="M169.125 183.125H112.75V122.083H169.125V183.125Z" fill="white"/>
<path d="M169.125 183.125H112.75V122.083H169.125V183.125Z" fill="#47CE55"/>
<path d="M56.375 122.083H0V61.0416H56.375V122.083Z" fill="white"/>
<path d="M56.375 61.0416V122.083L0 61.0416H56.375Z" fill="#47CE55"/>
<path d="M112.75 122.083H56.375V61.0416H112.75V122.083Z" fill="white"/>
<path d="M112.75 122.083V61.0416L56.375 122.083H112.75Z" fill="#47CE55"/>
<path d="M169.125 122.083H112.75V61.0416H169.125V122.083Z" fill="white"/>
<path d="M169.125 122.083H112.75V61.0416H169.125V122.083Z" fill="#0B6773"/>
<path d="M112.75 61.0417H56.375V-7.62939e-06H112.75V61.0417Z" fill="white"/>
<path d="M112.75 61.0417H56.375V-7.62939e-06H112.75V61.0417Z" fill="#47CE55"/>
<path d="M169.125 61.0417H110V-7.62939e-06H169.125V61.0417Z" fill="white"/>
<path d="M169.125 61.0417H110V-7.62939e-06H169.125V61.0417Z" fill="#47CE55"/>
<path d="M0 0H56.375V61.0417H0V0Z" fill="#0B6773"/>
</svg>
