<svg xmlns="http://www.w3.org/2000/svg" width="21.401" height="18.033" viewBox="0 0 21.401 18.033">
  <g id="shopping-cart_4_" data-name="shopping-cart (4)" transform="translate(0 -40.283)">
    <path id="Path_749" data-name="Path 749" d="M21.083,46.334a1.479,1.479,0,0,0-1.163-.558H15.8l-2.235-5.117a.627.627,0,1,0-1.149.5l2.016,4.616H6.971l2.016-4.616a.627.627,0,1,0-1.149-.5L5.6,45.776H1.481a1.479,1.479,0,0,0-1.163.558,1.444,1.444,0,0,0-.281,1.228l2.2,9.614a1.469,1.469,0,0,0,1.444,1.14H17.719a1.469,1.469,0,0,0,1.444-1.14l2.2-9.614a1.444,1.444,0,0,0-.281-1.228ZM17.719,57.062H3.682A.224.224,0,0,1,3.46,56.9l-2.2-9.613a.191.191,0,0,1,.039-.167.228.228,0,0,1,.183-.085H5.055l-.164.376a.627.627,0,1,0,1.149.5l.383-.878h8.554l.383.878a.627.627,0,0,0,1.149-.5l-.164-.376H19.92a.228.228,0,0,1,.183.085.192.192,0,0,1,.039.166L17.94,56.9a.224.224,0,0,1-.222.166Z" transform="translate(0)" fill="#fff"/>
    <path id="Path_750" data-name="Path 750" d="M151.627,266.717a.627.627,0,0,0-.627.627v4.6a.627.627,0,1,0,1.254,0v-4.6A.627.627,0,0,0,151.627,266.717Z" transform="translate(-144.689 -216.97)" fill="#fff"/>
    <path id="Path_751" data-name="Path 751" d="M241.627,266.717a.627.627,0,0,0-.627.627v4.6a.627.627,0,1,0,1.254,0v-4.6A.627.627,0,0,0,241.627,266.717Z" transform="translate(-230.927 -216.97)" fill="#fff"/>
    <path id="Path_752" data-name="Path 752" d="M331.627,266.717a.627.627,0,0,0-.627.627v4.6a.627.627,0,1,0,1.254,0v-4.6A.627.627,0,0,0,331.627,266.717Z" transform="translate(-317.165 -216.97)" fill="#fff"/>
  </g>
</svg>
