<svg width="393" height="754" viewBox="0 0 393 754" fill="none" xmlns="http://www.w3.org/2000/svg">
<path d="M406.058 294.233C386.935 299.357 368.715 304.73 350.24 309.045C331.543 313.391 316.462 307.097 306.769 292.258C298.209 279.164 298.8 262.406 308.469 249.365C314.515 241.221 322.971 236.472 332.553 233.876C380.987 220.812 429.334 207.424 477.922 195.04C517.558 184.91 547.935 207.776 554.268 248.112C565.837 321.456 557.871 391.923 526.904 459.401C489.111 541.699 429.623 602.934 346.579 639.822C236.027 688.901 127.207 683.677 20.7013 626.649C9.88286 620.858 1.44424 613.39 1.43733 600.113C1.46657 576.519 25.4814 563.791 47.7479 576.214C80.5025 594.487 115.209 606.579 152.235 612.132C192.542 618.191 232.423 616.194 271.85 605.716C285.891 601.983 292.489 593.316 289.941 582.191C287.532 571.693 276.567 566.433 263.271 569.389C232.873 576.177 202.168 579.237 171.043 576.203C147.926 573.967 135.685 562.005 137.717 544.053C139.898 524.934 152.517 516.761 176.505 518.907C300.372 529.973 404.687 436.288 406.811 312.017C406.874 306.543 406.356 301.053 406.058 294.233Z" fill="#FFF0D6"/>
<path d="M391.126 9.89378C394.904 26.578 390.929 36.4189 381.534 44.0175C370.763 52.7349 359.086 51.822 347.757 45.4177C315.921 27.4468 282.078 15.2387 246.017 9.51421C203.92 2.80897 162.206 4.43063 120.87 15.6509C108.784 18.9183 103.583 26.2298 105.248 37.9374C106.773 48.5854 117.759 54.2448 130.239 51.0452C162.889 42.6428 195.891 40.613 229.306 44.6505C241.146 46.0679 250.545 51.0844 254.838 63.0116C263.175 86.1533 247.187 104.814 220.859 102.226C163.906 96.6435 111.885 110.005 67.5471 146.222C8.45679 194.503 -18.3467 257.373 -10.3013 333.942C-9.42906 342.369 -10.8145 346.464 -19.7588 348.745C-62.4852 359.732 -105.145 371.076 -147.611 383.032C-157.73 385.888 -159.747 381.376 -160.969 373.476C-173.045 295.331 -163.395 220.372 -127.924 149.233C-89.0105 71.2242 -29.9282 13.216 49.7381 -21.4101C150.086 -65.0421 251.265 -64.0927 351.306 -18.2648C359.731 -14.4022 368.067 -10.2269 376.139 -5.63464C384.034 -1.16789 390.245 4.99112 391.126 9.89378Z" fill="#ECE3D4"/>
</svg>
