<svg width="95" height="95" viewBox="0 0 95 95" fill="none" xmlns="http://www.w3.org/2000/svg">
<circle cx="36.4092" cy="48" r="4" fill="#FFBB37"/>
<circle cx="49.4092" cy="41" r="4" fill="#FFBB37"/>
<circle cx="49.4092" cy="55" r="4" fill="#FFBB37"/>
<path d="M74.4175 52.5782C71.8258 52.5782 69.3399 52.6402 66.8576 52.5599C64.3462 52.4759 62.6524 51.1691 61.9297 48.9643C61.2909 47.0187 61.9333 44.9197 63.5979 43.5983C64.6382 42.7733 65.8684 42.4594 67.1679 42.4558C73.7349 42.4448 80.3018 42.3901 86.8652 42.4704C92.2202 42.5324 95.2865 46.4529 94.7207 51.7678C93.6986 61.4339 90.3038 70.0743 84.1019 77.5575C76.5347 86.6833 66.938 92.4107 55.1875 94.2614C39.5458 96.7217 25.9629 92.3742 14.4278 81.5546C13.256 80.4558 12.442 79.2257 12.891 77.5465C13.6941 74.5642 17.1619 73.7684 19.5565 76.0937C23.0791 79.514 27.058 82.2189 31.5515 84.1755C36.443 86.3073 41.5535 87.4061 46.8939 87.417C48.7957 87.4207 49.9237 86.5483 49.9785 85.0553C50.0296 83.6462 48.8213 82.6095 47.0399 82.5329C42.9662 82.3613 38.98 81.7079 35.1471 80.2697C32.2998 79.2038 31.1573 77.2764 32.0224 75.0752C32.946 72.7317 34.8186 72.1257 37.779 73.2099C53.0666 78.8059 69.4311 70.494 73.9101 54.8523C74.1036 54.1624 74.224 53.4506 74.4175 52.5782Z" fill="#47CE55"/>
<path d="M82.1631 16.1185C82.0754 18.3562 81.2395 19.4659 79.794 20.1083C78.1367 20.8457 76.6912 20.3347 75.4756 19.141C72.0589 15.79 68.1932 13.0997 63.8274 11.154C58.7315 8.87988 53.402 7.67162 47.7951 7.68987C46.1561 7.69352 45.2508 8.44184 45.0646 9.97863C44.8967 11.3767 46.094 12.4645 47.7805 12.4828C52.1938 12.5266 56.4355 13.3881 60.5238 15.0307C61.973 15.6111 62.9915 16.5639 63.1302 18.2175C63.4003 21.4261 60.7465 23.244 57.505 22.0248C50.4927 19.3892 43.4621 19.3162 36.6287 22.3935C27.5211 26.4964 22.0018 33.5379 20.4248 43.4924C20.2496 44.5875 19.9357 45.0584 18.7274 45.0438C12.9526 44.9854 7.17407 44.9745 1.39923 45.0475C0.0230479 45.0657 -0.0791581 44.4269 0.0340026 43.3866C1.15466 33.0963 4.91451 23.9448 11.81 16.1514C19.3735 7.60591 28.8097 2.27276 40.0564 0.593607C54.2233 -1.52359 66.9849 2.02454 78.082 11.2088C79.0165 11.9827 79.9291 12.7931 80.7942 13.6472C81.6411 14.4795 82.2178 15.4688 82.1631 16.1185Z" fill="#0B735A"/>
</svg>
