<svg xmlns="http://www.w3.org/2000/svg" width="186.228" height="170.75" viewBox="0 0 186.228 170.75">
  <g id="Group_19" data-name="Group 19" transform="translate(-289.637 -156.336)">
    <g id="Group_18" data-name="Group 18" transform="translate(289.637 157.086)">
      <g id="Group_1" data-name="Group 1" transform="translate(57.61 44.063)">
        <path id="Path_1" data-name="Path 1" d="M93.77,77.254c-.157.167-.3.346-.459.511a23.149,23.149,0,0,1-26.5,4.5,25.3,25.3,0,1,0,49.976-1.05A23.141,23.141,0,0,1,93.77,77.254Z" transform="translate(-65.994 -59.706)" fill="#ffdbb2"/>
        <path id="Path_2" data-name="Path 2" d="M73.952,104.322c-.1-.1-.208-.2-.31-.3A25.714,25.714,0,0,1,66.26,82.228l.107-.807.733.355a22.565,22.565,0,0,0,25.827-4.381c.083-.083.159-.171.234-.258s.14-.161.214-.24l.382-.406.426.359A22.579,22.579,0,0,0,116.615,80.7l.663-.248.124.7a25.893,25.893,0,0,1-43.45,23.167ZM67.334,83.181a24.708,24.708,0,0,0,42.1,19.909,24.768,24.768,0,0,0,6.913-21.041,23.759,23.759,0,0,1-22.484-3.934l-.106.11A23.744,23.744,0,0,1,67.334,83.181Z" transform="translate(-66.027 -59.751)" fill="#5f3a16"/>
        <path id="Path_3" data-name="Path 3" d="M98.516,62.541a23.058,23.058,0,0,1-6.265,15.584,23.141,23.141,0,0,0,23.017,3.957A25.158,25.158,0,0,0,98.516,62.541Z" transform="translate(-64.474 -60.577)" fill="#f47535"/>
        <path id="Path_4" data-name="Path 4" d="M91.444,78.222l.426-.453A22.483,22.483,0,0,0,97.976,62.58l.007-.812.771.262a25.753,25.753,0,0,1,17.142,20l.085.482-.459.172a23.76,23.76,0,0,1-23.6-4.059Zm7.687-14.807a23.65,23.65,0,0,1-5.978,14.694,22.581,22.581,0,0,0,21.493,3.635,24.559,24.559,0,0,0-15.515-18.33Z" transform="translate(-64.522 -60.622)" fill="#5f3a16"/>
        <path id="Path_5" data-name="Path 5" d="M93.3,78.711a23.07,23.07,0,0,0,6.724-16.095A25.241,25.241,0,0,0,66.8,83.208,23.149,23.149,0,0,0,93.3,78.711Z" transform="translate(-65.981 -60.652)" fill="#f47535"/>
        <path id="Path_6" data-name="Path 6" d="M66.194,83.586l.056-.423a25.831,25.831,0,0,1,34-21.07l.4.138,0,.426a23.712,23.712,0,0,1-34.07,21.114ZM99.463,63.073A24.649,24.649,0,0,0,67.478,82.894,22.534,22.534,0,0,0,99.463,63.073Z" transform="translate(-66.017 -60.686)" fill="#5f3a16"/>
        <path id="Path_7" data-name="Path 7" d="M85.092,87.562a2.285,2.285,0,1,1-3.233.008A2.285,2.285,0,0,1,85.092,87.562Z" transform="translate(-65.129 -59.135)" fill="#5f3a16"/>
        <path id="Path_8" data-name="Path 8" d="M99.5,87.317a2.286,2.286,0,1,1-3.233.008A2.286,2.286,0,0,1,99.5,87.317Z" transform="translate(-64.276 -59.149)" fill="#5f3a16"/>
        <path id="Path_9" data-name="Path 9" d="M91.41,103.286a14.158,14.158,0,0,1-13.14-7.71l-1.214.041a15.34,15.34,0,0,0,28.154-.956L104,94.7A14.157,14.157,0,0,1,91.41,103.286Z" transform="translate(-65.374 -58.675)" fill="#5f3a16"/>
      </g>
      <path id="Path_10" data-name="Path 10" d="M112.084,33.125c2.149,8.515-1.18,13.895-5.857,17.8,4.677-3.907,8.007-9.287,5.857-17.8l-.024,0c-5.972-19.244-31.817-17.991-39.3-.625-30.658,1.373-24.6,34.148-3.208,35.316V79.341a158.954,158.954,0,0,0,46.522,0V67.819C142.353,65.065,137.373,29.354,112.084,33.125Zm-39.416-.436c-2.395,8.79.985,14.288,5.747,18.266C73.653,46.976,70.273,41.479,72.668,32.688Z" transform="translate(-9.27 -19.086)" fill="#fff" stroke="#5f3a16" stroke-miterlimit="10" stroke-width="1.5"/>
      <g id="Group_14" data-name="Group 14" transform="translate(0 59.94)">
        <g id="Group_2" data-name="Group 2" transform="translate(2.914 9.185)">
          <path id="Path_11" data-name="Path 11" d="M35.045,93.328c-.046.23-.07.46-.123.69A23.617,23.617,0,0,1,14.389,112.2,25.81,25.81,0,1,0,57.116,84.347,23.61,23.61,0,0,1,35.045,93.328Z" transform="translate(-14.389 -84.347)" fill="#ffdbb2"/>
        </g>
        <g id="Group_3" data-name="Group 3" transform="translate(2.025 8.245)">
          <path id="Path_12" data-name="Path 12" d="M57.13,83.46l.483.538a26.412,26.412,0,1,1-43.722,28.5l-.342-.756.826-.088a23.024,23.024,0,0,0,20.01-17.719c.028-.119.046-.237.065-.355s.034-.212.054-.318l.111-.559.565.082a23.028,23.028,0,0,0,21.509-8.752Zm-31.86,40A25.222,25.222,0,0,0,57.187,85.338a24.237,24.237,0,0,1-21.6,8.713c-.011.052-.02.1-.033.155a24.225,24.225,0,0,1-20.22,18.54A25.1,25.1,0,0,0,25.27,123.457Z" transform="translate(-13.549 -83.46)" fill="#5f3a16"/>
        </g>
        <g id="Group_4" data-name="Group 4" transform="translate(20.596 0.604)">
          <path id="Path_13" data-name="Path 13" d="M31.082,76.93a23.534,23.534,0,0,1,2.974,16.877,23.61,23.61,0,0,0,22.072-8.981,25.674,25.674,0,0,0-25.046-7.9Z" transform="translate(-31.082 -76.246)" fill="#f47535"/>
        </g>
        <g id="Group_5" data-name="Group 5" transform="translate(19.652)">
          <path id="Path_14" data-name="Path 14" d="M50.214,79.229a26.415,26.415,0,0,1,6.413,5.23l.334.372-.305.4a24.232,24.232,0,0,1-22.633,9.21l-.627-.091.124-.622a22.944,22.944,0,0,0-2.9-16.446l-.431-.709L31,76.379a26.27,26.27,0,0,1,19.215,2.849Zm5.18,5.66a25.067,25.067,0,0,0-23.322-7.514,24.127,24.127,0,0,1,2.742,15.952A23.034,23.034,0,0,0,55.394,84.889Z" transform="translate(-30.191 -75.676)" fill="#5f3a16"/>
        </g>
        <g id="Group_6" data-name="Group 6" transform="translate(0.604 1.289)">
          <path id="Path_15" data-name="Path 15" d="M35.051,94.459A23.539,23.539,0,0,0,32.2,76.892a25.754,25.754,0,0,0-17.681,35.749A23.617,23.617,0,0,0,35.051,94.459Z" transform="translate(-12.208 -76.892)" fill="#f47535"/>
        </g>
        <g id="Group_7" data-name="Group 7" transform="translate(0 0.605)">
          <path id="Path_16" data-name="Path 16" d="M32.52,76.247l.227.371a24.09,24.09,0,0,1,2.922,18.014h0a24.226,24.226,0,0,1-21.054,18.644l-.432.047-.179-.4A26.355,26.355,0,0,1,32.1,76.346ZM34.5,94.363a22.891,22.891,0,0,0-2.555-16.744,25.149,25.149,0,0,0-17.021,34.412A23.024,23.024,0,0,0,34.5,94.363Z" transform="translate(-11.637 -76.247)" fill="#5f3a16"/>
        </g>
        <g id="Group_9" data-name="Group 9" transform="translate(19.811 31.742)">
          <g id="Group_8" data-name="Group 8">
            <path id="Path_17" data-name="Path 17" d="M33.2,105.7a2.332,2.332,0,1,1-2.8,1.75A2.331,2.331,0,0,1,33.2,105.7Z" transform="translate(-30.341 -105.643)" fill="#5f3a16"/>
          </g>
        </g>
        <g id="Group_11" data-name="Group 11" transform="translate(32.891 23.291)">
          <g id="Group_10" data-name="Group 10" transform="translate(0)">
            <path id="Path_18" data-name="Path 18" d="M45.545,97.724a2.332,2.332,0,1,1-2.8,1.75A2.331,2.331,0,0,1,45.545,97.724Z" transform="translate(-42.69 -97.664)" fill="#5f3a16"/>
          </g>
        </g>
        <g id="Group_13" data-name="Group 13" transform="translate(20.084 27.636)">
          <g id="Group_12" data-name="Group 12">
            <path id="Path_19" data-name="Path 19" d="M47.167,116.678a14.448,14.448,0,0,1-15.54.406l-1.028.69a15.652,15.652,0,0,0,23.872-16.007l-1.028.69A14.447,14.447,0,0,1,47.167,116.678Z" transform="translate(-30.599 -101.767)" fill="#5f3a16"/>
          </g>
        </g>
      </g>
      <path id="Path_20" data-name="Path 20" d="M153.222,93.2c-.219.085-.426.186-.649.264a23.616,23.616,0,0,1-26.324-7.693A25.809,25.809,0,1,0,172.579,107.1,23.609,23.609,0,0,1,153.222,93.2Z" transform="translate(-5.108 -15.138)" fill="#ffdbb2"/>
      <path id="Path_21" data-name="Path 21" d="M154.767,125.572A26.406,26.406,0,0,1,125.782,85.5l.459-.693.515.651a23.01,23.01,0,0,0,25.654,7.5c.118-.041.23-.089.342-.138l.822-.325.233.522a23.03,23.03,0,0,0,18.864,13.542l.719.068-.2.695A26.474,26.474,0,0,1,156.5,125.033Q155.638,125.333,154.767,125.572ZM126.342,86.85a25.208,25.208,0,1,0,45.489,20.822,24.244,24.244,0,0,1-18.879-13.638c-.049.019-.1.038-.148.055A24.238,24.238,0,0,1,126.342,86.85Z" transform="translate(-5.142 -15.195)" fill="#5f3a16"/>
      <path id="Path_22" data-name="Path 22" d="M140.375,99.007a2.332,2.332,0,1,1-2.97-1.433A2.331,2.331,0,0,1,140.375,99.007Z" transform="translate(-4.284 -14.447)" fill="#5f3a16"/>
      <path id="Path_23" data-name="Path 23" d="M153.706,105.209a2.332,2.332,0,1,1-2.97-1.434A2.331,2.331,0,0,1,153.706,105.209Z" transform="translate(-3.495 -14.08)" fill="#5f3a16"/>
      <path id="Path_24" data-name="Path 24" d="M139.115,116.25a14.447,14.447,0,0,1-8.621-12.935l-1.131-.5a15.651,15.651,0,0,0,26.262,11.679l-1.131-.5A14.445,14.445,0,0,1,139.115,116.25Z" transform="translate(-4.668 -14.129)" fill="#5f3a16"/>
      <g id="Group_15" data-name="Group 15" transform="translate(48.668 106.805)">
        <path id="Path_25" data-name="Path 25" d="M58.638,123.224a2.049,2.049,0,0,1,1.723-.9c1.46,0,2.286,1.125,2.286,3.135,0,1.938-.815,3.028-2.25,3.028a2.049,2.049,0,0,1-1.735-.838v2.25a.539.539,0,0,1-1.077,0v-7.036a.506.506,0,0,1,.5-.5.5.5,0,0,1,.5.443Zm2.884,2.154c0-1.435-.515-2.237-1.425-2.237-.945,0-1.483.825-1.483,2.309,0,1.424.526,2.225,1.46,2.225S61.522,126.851,61.522,125.379Z" transform="translate(-57.585 -119.779)" fill="#f47536"/>
        <path id="Path_26" data-name="Path 26" d="M68.366,128.011a.483.483,0,0,1-.539.479,1.55,1.55,0,0,1-.874-.324.771.771,0,0,1-.239-.466,1.705,1.705,0,0,1-1.64.8,1.664,1.664,0,0,1-1.855-1.784c0-1.207.754-1.842,2.561-1.866l.849-.012v-.623c0-.813-.515-1.065-1.2-1.065a3.893,3.893,0,0,0-1.365.31.37.37,0,0,1-.166.024.443.443,0,0,1-.444-.443.454.454,0,0,1,.3-.418,6.091,6.091,0,0,1,1.794-.288c1.3,0,2.154.575,2.154,1.772v2.944c0,.311.132.431.3.479A.5.5,0,0,1,68.366,128.011Zm-1.748-2.418-.73.013c-.874.012-1.544.2-1.544,1.053a.926.926,0,0,0,.887,1.03,1.3,1.3,0,0,0,1.388-1.293Z" transform="translate(-57.251 -119.778)" fill="#f47536"/>
        <path id="Path_27" data-name="Path 27" d="M74.3,125.772c-.036,1.975-1.112,2.9-2.657,2.9-1.328,0-2.62-.753-2.62-2.968v-1.687c.036-2.2.251-3.29,2.561-3.649a8.075,8.075,0,0,0,1.686-.407.455.455,0,0,1,.192-.036.515.515,0,0,1,.156,1.005,9.085,9.085,0,0,1-1.651.311c-1.639.191-2.01.789-2.022,2.237v.479a2.137,2.137,0,0,1,2.034-1.077C73.546,122.876,74.336,124,74.3,125.772Zm-1.124-.048c0-1.5-.611-2.046-1.5-2.046s-1.532.659-1.532,2.058c0,1.353.586,2.118,1.507,2.118S73.176,127.233,73.176,125.724Z" transform="translate(-56.908 -119.921)" fill="#f47536"/>
        <path id="Path_28" data-name="Path 28" d="M80.1,125.414c0,1.807-.861,3.076-2.62,3.076s-2.62-1.269-2.62-3.076.861-3.076,2.62-3.076S80.1,123.607,80.1,125.414Zm-1.125,0c0-1.389-.466-2.261-1.5-2.261s-1.5.873-1.5,2.261.467,2.261,1.5,2.261S78.977,126.814,78.977,125.414Z" transform="translate(-56.562 -119.778)" fill="#f47536"/>
        <path id="Path_29" data-name="Path 29" d="M88.826,124.589v3.338a.538.538,0,1,1-1.076,0V124.72c0-.682-.048-1.5-.982-1.5-.813,0-1.292.683-1.292,2.046v2.656a.539.539,0,1,1-1.077,0V124.72c0-.682-.048-1.5-.981-1.5-.815,0-1.292.683-1.292,2.046v2.656a.539.539,0,1,1-1.077,0v-5.049a.51.51,0,0,1,1.017-.059l.06.49a1.794,1.794,0,0,1,1.687-.97,1.48,1.48,0,0,1,1.124.467,1.427,1.427,0,0,1,.3.562.264.264,0,0,0,.036-.059,2.045,2.045,0,0,1,1.843-.97C87.905,122.338,88.826,122.805,88.826,124.589Z" transform="translate(-56.196 -119.778)" fill="#f47536"/>
        <path id="Path_30" data-name="Path 30" d="M89.765,126.25V122.9a.539.539,0,1,1,1.077,0v3.219c0,.682.191,1.5,1.125,1.5.813,0,1.448-.694,1.448-2.059V122.9a.539.539,0,1,1,1.077,0v5.049a.51.51,0,0,1-1.017.06l-.06-.5a2.066,2.066,0,0,1-1.843.993C90.806,128.5,89.765,128.033,89.765,126.25Z" transform="translate(-55.68 -119.777)" fill="#f47536"/>
        <path id="Path_31" data-name="Path 31" d="M99.741,128.453c-.347,0-.49-.156-.623-.6l-1.137-3.865c-.059-.216-.108-.407-.144-.587-.036.18-.083.371-.143.587l-1.174,3.973c-.083.3-.227.49-.573.49a.493.493,0,0,1-.48-.67l1.592-4.906a.744.744,0,0,1,.73-.526h.1a.742.742,0,0,1,.73.526l1.568,4.787C100.3,128.034,100.207,128.453,99.741,128.453Z" transform="translate(-55.344 -119.777)" fill="#f47536"/>
        <path id="Path_32" data-name="Path 32" d="M105.369,122.361a.544.544,0,0,1,.539.539v5.025a.539.539,0,1,1-1.077,0v-2.034h-2.573v2.034a.539.539,0,1,1-1.077,0V122.9a.539.539,0,1,1,1.077,0v2.117h2.573V122.9A.543.543,0,0,1,105.369,122.361Z" transform="translate(-55.004 -119.777)" fill="#f47536"/>
        <path id="Path_33" data-name="Path 33" d="M107.142,126.25V122.9a.539.539,0,1,1,1.077,0v3.219c0,.682.192,1.5,1.125,1.5.814,0,1.448-.694,1.448-2.059V122.9a.539.539,0,1,1,1.077,0v5.049a.51.51,0,0,1-1.017.06l-.06-.5a2.063,2.063,0,0,1-1.843.993C108.183,128.5,107.142,128.033,107.142,126.25Z" transform="translate(-54.651 -119.777)" fill="#f47536"/>
        <path id="Path_34" data-name="Path 34" d="M116.936,122.361a.544.544,0,0,1,.538.539v5.025a.539.539,0,1,1-1.077,0v-2.094a2.714,2.714,0,0,1-1.6.539c-1.018,0-1.939-.526-1.939-2.142V122.9a.539.539,0,1,1,1.077,0v1.2c0,.91.264,1.389,1.113,1.389a1.9,1.9,0,0,0,1.352-.587v-2A.544.544,0,0,1,116.936,122.361Z" transform="translate(-54.313 -119.777)" fill="#f47536"/>
        <path id="Path_35" data-name="Path 35" d="M123.124,128.059a.5.5,0,0,1-.538.539.564.564,0,0,1-.49-.3l-1.377-2.573h-.789v2.333a.539.539,0,1,1-1.077,0V120.64a.539.539,0,0,1,1.077,0v4.2h.9l1.221-1.975c.143-.227.263-.382.55-.382.346,0,.6.335.346.753l-1.292,2.059,1.4,2.476A.561.561,0,0,1,123.124,128.059Z" transform="translate(-53.958 -119.91)" fill="#f47536"/>
        <path id="Path_36" data-name="Path 36" d="M129,128.011a.482.482,0,0,1-.539.479,1.55,1.55,0,0,1-.874-.324.771.771,0,0,1-.239-.466,1.7,1.7,0,0,1-1.639.8,1.663,1.663,0,0,1-1.855-1.784c0-1.207.754-1.842,2.561-1.866l.848-.012v-.623c0-.813-.515-1.065-1.2-1.065a3.894,3.894,0,0,0-1.365.31.368.368,0,0,1-.166.024.442.442,0,0,1-.443-.443.453.453,0,0,1,.3-.418,6.092,6.092,0,0,1,1.8-.288c1.3,0,2.153.575,2.153,1.772v2.944c0,.311.132.431.3.479A.5.5,0,0,1,129,128.011Zm-1.748-2.418-.73.013c-.873.012-1.544.2-1.544,1.053a.926.926,0,0,0,.887,1.03,1.3,1.3,0,0,0,1.388-1.293Z" transform="translate(-53.662 -119.778)" fill="#f47536"/>
      </g>
      <path id="Path_37" data-name="Path 37" d="M40.742,141.025c0,2.384-1.56,4.358-4.963,4.358H31.465A.951.951,0,0,1,30.4,144.32V132.01a.951.951,0,0,1,1.062-1.062h7.282a.878.878,0,1,1,0,1.755H32.441V136.5h3.316C39.225,136.5,40.742,138.664,40.742,141.025Zm-2.189-.064c0-1.929-1.084-2.817-2.99-2.817H32.441v5.592h3.252C37.3,143.736,38.553,143.042,38.553,140.962Z" transform="translate(-10.526 -12.463)" fill="#5f3a16"/>
      <path id="Path_38" data-name="Path 38" d="M42.314,141.286v-6.067a.976.976,0,0,1,1.951,0v5.83c0,1.235.346,2.708,2.037,2.708,1.474,0,2.623-1.256,2.623-3.727v-4.811a.976.976,0,0,1,1.951,0v9.145a.924.924,0,0,1-1.843.109l-.108-.91a3.739,3.739,0,0,1-3.338,1.8C44.2,145.361,42.314,144.515,42.314,141.286Z" transform="translate(-9.821 -12.268)" fill="#5f3a16"/>
      <path id="Path_39" data-name="Path 39" d="M59.585,143.5a.691.691,0,0,1,.3-.066.815.815,0,0,1,.8.8.83.83,0,0,1-.542.781,8.207,8.207,0,0,1-2.536.347c-3.316,0-4.963-2.255-4.963-5.548,0-3.123,1.474-5.614,4.942-5.614a7.932,7.932,0,0,1,2.428.346.79.79,0,0,1-.239,1.539,1.1,1.1,0,0,1-.282-.065,4.98,4.98,0,0,0-1.8-.347c-2.167,0-3.012,1.821-3.012,4.031,0,2.145.845,4.183,3.23,4.183A4.292,4.292,0,0,0,59.585,143.5Z" transform="translate(-9.209 -12.271)" fill="#5f3a16"/>
      <path id="Path_40" data-name="Path 40" d="M70.086,144.563a.91.91,0,0,1-.976.975,1.024,1.024,0,0,1-.888-.541l-2.492-4.66H64.3v4.226a.976.976,0,0,1-1.951,0V131.126a.976.976,0,0,1,1.951,0v7.607h1.626l2.211-3.576c.26-.412.477-.694,1-.694.628,0,1.084.606.628,1.365l-2.341,3.728,2.536,4.486A1.028,1.028,0,0,1,70.086,144.563Z" transform="translate(-8.635 -12.51)" fill="#5f3a16"/>
      <path id="Path_41" data-name="Path 41" d="M81.008,141.3c0,2.492-1.6,4.291-4.811,4.291-2.8,0-4.248-1.452-4.248-4.378l-.022-6.416c0-1.062-.042-4.747,4.14-4.747,2.644,0,4.27,1.474,4.27,3.815a3.248,3.248,0,0,1-1.084,2.558,4,4,0,0,1-1.6.672A3.906,3.906,0,0,1,81.008,141.3ZM73.9,137.048c.672-.153,1.82-.26,2.275-.346a2.627,2.627,0,0,0,2.146-2.861c0-1.734-.867-2.32-2.167-2.32-1.864,0-2.254,1.235-2.254,3.035ZM78.84,141.1c0-1.842-.781-2.926-2.623-2.926a8.57,8.57,0,0,0-2.319.39l.021,2.645c.022,2.037.911,2.9,2.405,2.9C78.126,144.114,78.84,142.879,78.84,141.1Z" transform="translate(-8.068 -12.517)" fill="#5f3a16"/>
      <path id="Path_42" data-name="Path 42" d="M82.425,141.286v-6.067a.976.976,0,1,1,1.951,0v5.83c0,1.235.346,2.708,2.037,2.708,1.474,0,2.623-1.256,2.623-3.727v-4.811a.975.975,0,1,1,1.95,0v9.145a.924.924,0,0,1-1.842.109l-.108-.91a3.74,3.74,0,0,1-3.338,1.8C84.31,145.361,82.425,144.515,82.425,141.286Z" transform="translate(-7.446 -12.268)" fill="#5f3a16"/>
      <path id="Path_43" data-name="Path 43" d="M107.543,138.276v6.047a.975.975,0,1,1-1.95,0v-5.809c0-1.235-.087-2.709-1.777-2.709-1.474,0-2.341,1.236-2.341,3.706v4.812a.976.976,0,1,1-1.951,0v-5.809c0-1.235-.087-2.709-1.777-2.709-1.473,0-2.341,1.236-2.341,3.706v4.812a.975.975,0,1,1-1.95,0v-9.145a.924.924,0,0,1,1.842-.109l.108.889a3.251,3.251,0,0,1,3.057-1.755,2.685,2.685,0,0,1,2.037.845,2.56,2.56,0,0,1,.541,1.019.49.49,0,0,0,.066-.109,3.7,3.7,0,0,1,3.338-1.755C105.874,134.2,107.543,135.047,107.543,138.276Z" transform="translate(-6.793 -12.271)" fill="#5f3a16"/>
      <path id="Path_44" data-name="Path 44" d="M117.217,144.563a.91.91,0,0,1-.976.975,1.025,1.025,0,0,1-.889-.541l-2.493-4.66h-1.43v4.226a.975.975,0,1,1-1.95,0V131.126a.975.975,0,1,1,1.95,0v7.607h1.626l2.211-3.576c.261-.412.477-.694,1-.694.629,0,1.085.606.629,1.365l-2.341,3.728,2.536,4.486A1.028,1.028,0,0,1,117.217,144.563Z" transform="translate(-5.845 -12.51)" fill="#5f3a16"/>
      <path id="Path_45" data-name="Path 45" d="M119.078,141.286v-6.067a.975.975,0,1,1,1.95,0v5.83c0,1.235.347,2.708,2.038,2.708,1.473,0,2.623-1.256,2.623-3.727v-4.811a.976.976,0,0,1,1.951,0v9.145a.924.924,0,0,1-1.843.109l-.108-.91a3.741,3.741,0,0,1-3.339,1.8C120.963,145.361,119.078,144.515,119.078,141.286Z" transform="translate(-5.276 -12.268)" fill="#5f3a16"/>
      <path id="Path_46" data-name="Path 46" d="M144.2,138.276v6.047a.976.976,0,1,1-1.951,0v-5.809c0-1.235-.086-2.709-1.777-2.709-1.473,0-2.341,1.236-2.341,3.706v4.812a.975.975,0,1,1-1.95,0v-5.809c0-1.235-.087-2.709-1.777-2.709-1.473,0-2.341,1.236-2.341,3.706v4.812a.975.975,0,1,1-1.95,0v-9.145a.924.924,0,0,1,1.842-.109l.108.889a3.249,3.249,0,0,1,3.056-1.755,2.682,2.682,0,0,1,2.037.845,2.577,2.577,0,0,1,.542,1.019.492.492,0,0,0,.066-.109A3.7,3.7,0,0,1,141.1,134.2C142.527,134.2,144.2,135.047,144.2,138.276Z" transform="translate(-4.623 -12.271)" fill="#f47536"/>
      <path id="Path_47" data-name="Path 47" d="M154.453,139.056v.433a1.014,1.014,0,0,1-1.128,1.04h-5.851c.173,1.995,1.04,3.36,3.207,3.36a7.04,7.04,0,0,0,2.189-.39,1.275,1.275,0,0,1,.433-.108.718.718,0,0,1,.716.757.739.739,0,0,1-.5.716,9.268,9.268,0,0,1-2.991.5c-3.446,0-5.094-2.147-5.094-5.57,0-3.577,1.8-5.592,4.746-5.592C152.5,134.2,154.453,135.458,154.453,139.056Zm-2.017-.585c0-1.822-.823-2.8-2.3-2.8-1.733,0-2.578,1.344-2.687,3.511h4.963A6.072,6.072,0,0,0,152.436,138.472Z" transform="translate(-3.716 -12.271)" fill="#f47536"/>
      <path id="Path_48" data-name="Path 48" d="M121.832,176.736a13.084,13.084,0,0,1-10.128-3.145,9.049,9.049,0,0,1-7.812,6.984c-3.256-.052-5.86-2.274-8.2-5.363a10.029,10.029,0,0,1-9.041,5.363c-3.666-1.487-6.091-3.815-7.184-7.051a13.222,13.222,0,0,1-9.731,2.682,10.353,10.353,0,0,1-5.4-8.606,10.216,10.216,0,0,1-10.062.2c-3.4-2.7-3.58-5.567-3.575-9.83-4.336,1.1-8.606.057-11.452-3.774l.314-4.071H152.45c.076,3.626-.953,6.138-3.012,7.613-2.616,1.408-5.652,1.558-8.938.96.462,4.288-.836,7.441-3.475,9.732-3.332,1.442-6.665.859-10-.6A12.339,12.339,0,0,1,121.832,176.736Z" transform="translate(-10.003 -11.328)" fill="#db9b5e"/>
      <path id="Path_49" data-name="Path 49" d="M153.213,149.4H151.55v0H39.81v0h-1.6a8.667,8.667,0,0,0,11.983,9.334,8.718,8.718,0,0,0,3.343,9.668q.583.354,1.234.71h0a8.718,8.718,0,0,0,8.985-.888,8.688,8.688,0,0,0,15.441,5.936,8.73,8.73,0,0,0,7.475,7.041c.341.035.683.055,1.025.057a8.684,8.684,0,0,0,7.909-4.976,8.7,8.7,0,0,0,16.439-1.873,8.685,8.685,0,0,0,15.486-5.781,8.709,8.709,0,0,0,13.7-9.3,8.692,8.692,0,0,0,11.983-9.931Zm-3.171,6.733a7.05,7.05,0,0,1-9.292,1.087c-.505.46-1.023.906-1.543,1.349a7.086,7.086,0,0,1-11.571,7.963c-.609.33-1.229.641-1.849.952a7.094,7.094,0,0,1-9.891,7.983,7.029,7.029,0,0,1-3.241-3.054c-.677.175-1.361.329-2.046.482a7.095,7.095,0,0,1-11.525,5.334,7.051,7.051,0,0,1-2.415-3.734c-.373,0-.743.023-1.117.02-.329,0-.655-.024-.983-.032a7.088,7.088,0,0,1-6.862,5.191c-.291,0-.581-.018-.855-.047a7.112,7.112,0,0,1-6.19-6.92c-.686-.163-1.374-.324-2.052-.508a7.088,7.088,0,0,1-13.077-5.1c-.618-.32-1.237-.638-1.843-.977a7.05,7.05,0,0,1-9.247.969l-.315-.217a7.048,7.048,0,0,1-1.9-8.863c-.517-.454-1.034-.908-1.536-1.378a7.109,7.109,0,0,1-9.278-1.219,7,7,0,0,1-1.731-4.529h112.13A7.023,7.023,0,0,1,150.042,156.134Z" transform="translate(-10.071 -11.371)" fill="#5f3a16"/>
      <path id="Path_50" data-name="Path 50" d="M77.808,158.166c0,1.523-1.884,3.03-3.407,3.03s-2.737-2.007-2.737-3.531,1.862-2.257,3.386-2.257A2.758,2.758,0,0,1,77.808,158.166Z" transform="translate(-8.084 -11.015)" fill="none" stroke="#5f3a16" stroke-miterlimit="10" stroke-width="1.2"/>
      <path id="Path_51" data-name="Path 51" d="M100.71,165.677a3.614,3.614,0,0,1-3.614,3.614c-2,0-4.1-1.618-4.1-3.614s2.56-3.814,4.556-3.814S100.71,163.681,100.71,165.677Z" transform="translate(-6.82 -10.633)" fill="none" stroke="#5f3a16" stroke-miterlimit="10" stroke-width="1.2"/>
      <path id="Path_52" data-name="Path 52" d="M114.514,151.887a4.468,4.468,0,0,0,4.087,4.043c1.93,0,4.131-2.319,4.131-4.352a2.674,2.674,0,0,0-1.257-2.177H115.81A3.137,3.137,0,0,0,114.514,151.887Z" transform="translate(-5.547 -11.371)" fill="none"/>
      <path id="Path_53" data-name="Path 53" d="M77.655,158.289a2.906,2.906,0,1,1-2.865-2.416A2.669,2.669,0,0,1,77.655,158.289Z" transform="translate(-8.068 -10.988)" fill="#5f3a16"/>
      <path id="Path_54" data-name="Path 54" d="M100.706,165.577a3.825,3.825,0,1,1-3.823-3.714A3.77,3.77,0,0,1,100.706,165.577Z" transform="translate(-6.817 -10.633)" fill="#5f3a16"/>
      <g id="Group_16" data-name="Group 16" transform="translate(107.697 138.03)">
        <path id="Path_55" data-name="Path 55" d="M123.346,151.7c0,2.15-2.327,4.6-4.367,4.6a4.722,4.722,0,0,1-4.321-4.274,3.315,3.315,0,0,1,1.371-2.628H114.18a4.522,4.522,0,0,0-.865,2.628,6.022,6.022,0,0,0,5.664,5.617c2.775,0,5.71-3.055,5.71-5.944a3.875,3.875,0,0,0-.747-2.3h-1.925A2.829,2.829,0,0,1,123.346,151.7Z" transform="translate(-113.315 -149.401)" fill="#5f3a16"/>
        <path id="Path_56" data-name="Path 56" d="M124.082,152.894c-.148,2.081-2.3,3.779-5.143,3.779s-5.145-1.693-5.145-3.779,2.339-3.127,5.18-3.127S124.265,150.327,124.082,152.894Z" transform="translate(-113.287 -149.379)" fill="#5f3a16"/>
      </g>
      <path id="Path_57" data-name="Path 57" d="M165.718,92.89c7.726-6.936,16.8-7.244,21.163.268,2.107,3.656,1.875,10.339-1.287,12.885a1,1,0,0,1-1.669-.417c-.107-.63-.495-1.594-1.186-1.746a2.227,2.227,0,0,0-.884.129c-6.75,3.009-10.992.076-14.525-6.408a3.869,3.869,0,0,0-.609-.782,6.111,6.111,0,0,1-1.324,1.671A10.023,10.023,0,0,0,165.718,92.89Z" transform="translate(-2.534 -15.029)" fill="#f47436" stroke="#5f3a16" stroke-miterlimit="10" stroke-width="1"/>
      <path id="Path_58" data-name="Path 58" d="M164.173,81.922a23.53,23.53,0,0,1-12.7,11.506,23.609,23.609,0,0,0,19.357,13.9,25.673,25.673,0,0,0-6.657-25.4Z" transform="translate(-3.359 -15.366)" fill="#f47535"/>
      <path id="Path_59" data-name="Path 59" d="M171.316,108.026l-.5-.047a24.239,24.239,0,0,1-19.849-14.252l-.256-.579.591-.226A22.937,22.937,0,0,0,163.68,81.709l.371-.741.59.584a26.268,26.268,0,0,1,6.812,25.994ZM152.329,93.809a23.035,23.035,0,0,0,18.1,12.922,25.065,25.065,0,0,0-6.063-23.741A24.132,24.132,0,0,1,152.329,93.809Z" transform="translate(-3.404 -15.422)" fill="#5f3a16"/>
      <path id="Path_60" data-name="Path 60" d="M140.079,80.832c.592-10.365-4.836-17.65-13.425-16.362-4.171.638-9.246,4.991-9.261,9.05a1,1,0,0,0,1.368,1.043c.559-.31,1.554-.608,2.1-.163a2.223,2.223,0,0,1,.452.772c1.865,7.152,6.8,8.634,14.076,7.343a3.89,3.89,0,0,1,.99-.013,6.113,6.113,0,0,0-.48,2.078A10.03,10.03,0,0,1,140.079,80.832Z" transform="translate(-5.376 -16.408)" fill="#f47436" stroke="#5f3a16" stroke-miterlimit="10" stroke-width="1"/>
      <g id="Group_17" data-name="Group 17" transform="translate(120.4 58.439)">
        <path id="Path_61" data-name="Path 61" d="M152.331,94.111a23.54,23.54,0,0,0,13.349-11.77,25.755,25.755,0,0,0-39.674,4.077A23.616,23.616,0,0,0,152.331,94.111Z" transform="translate(-125.267 -74.225)" fill="#f47535"/>
        <path id="Path_62" data-name="Path 62" d="M151.016,95.2a24.232,24.232,0,0,1-25.44-8.373l-.268-.341.239-.363a26.357,26.357,0,0,1,40.6-4.171l.308.305-.194.39a24.089,24.089,0,0,1-13.688,12.07h0Q151.8,94.982,151.016,95.2Zm-24.222-8.777a23.009,23.009,0,0,0,25.381,7.158h0A22.89,22.89,0,0,0,164.986,82.5a25.154,25.154,0,0,0-38.192,3.924Z" transform="translate(-125.308 -74.259)" fill="#5f3a16"/>
      </g>
    </g>
  </g>
</svg>
