<svg width="146" height="146" viewBox="0 0 146 146" fill="none" xmlns="http://www.w3.org/2000/svg">
<rect x="56.4092" y="54.75" width="26.5455" height="31.5227" fill="#FFBB37"/>
<path d="M145.993 73.1817C145.993 86.6843 145.993 100.187 145.993 113.69C145.993 129.587 135.505 142.396 119.9 145.495C118.243 145.823 116.545 146.002 114.83 146.002C86.9083 145.988 58.9904 146.024 31.069 145.977C15.7485 145.951 2.13637 133.704 0.296593 118.504C0.092174 116.807 0.000916376 115.117 0.000916376 113.416C0.000916376 86.228 -0.00274154 59.0403 0.00455914 31.8489C0.00820949 14.2104 14.1861 0.0105619 31.8063 0.00691152C59.3628 -0.00038916 86.9156 -0.0040395 114.472 0.00691152C130.19 0.0142122 143.74 12.0129 145.712 27.5816C145.912 29.1585 146 30.7245 146 32.3051C145.993 45.9319 145.993 59.5586 145.993 73.1817ZM99.9655 78.0585C99.7721 78.931 99.6516 79.6391 99.4545 80.329C94.9755 95.9744 78.611 104.286 63.3234 98.6866C60.363 97.6025 58.4867 98.2121 57.5668 100.552C56.7017 102.749 57.8442 104.677 60.6915 105.746C64.5244 107.185 68.5069 107.838 72.5843 108.01C74.3657 108.083 75.5776 109.119 75.5228 110.532C75.4681 112.025 74.3401 112.897 72.4383 112.894C67.0979 112.886 61.9874 111.788 57.0959 109.652C52.6024 107.692 48.6235 104.991 45.1009 101.57C42.7099 99.2451 39.2384 100.045 38.4354 103.023C37.9827 104.702 38.7968 105.933 39.9722 107.031C51.5072 117.851 65.0902 122.198 80.7319 119.738C92.4823 117.891 102.079 112.16 109.646 103.034C115.852 95.551 119.243 86.9106 120.265 77.2445C120.827 71.9296 117.765 68.0091 112.41 67.9471C105.846 67.8704 99.2793 67.9215 92.7123 67.9325C91.4128 67.9361 90.1826 68.2501 89.1423 69.075C87.4777 70.3965 86.8353 72.4954 87.4741 74.441C88.1968 76.6495 89.8942 77.9563 92.402 78.0366C94.8843 78.1242 97.3738 78.0585 99.9655 78.0585ZM107.712 41.5989C107.763 40.9492 107.186 39.9599 106.346 39.1276C105.485 38.2735 104.572 37.4667 103.634 36.6892C92.5371 27.5049 79.7755 23.9568 65.6085 26.074C54.3618 27.7532 44.9257 33.0827 37.3622 41.6318C30.4667 49.4252 26.7068 58.5767 25.5862 68.867C25.473 69.9073 25.5752 70.5425 26.9514 70.5279C32.7262 70.4549 38.5047 70.4658 44.2796 70.5242C45.4878 70.5352 45.8054 70.0679 45.977 68.9728C47.5539 59.0183 53.0732 51.9732 62.1808 47.8739C69.0143 44.7966 76.0448 44.8696 83.0572 47.5052C86.2987 48.7244 88.9524 46.9065 88.6823 43.6979C88.5436 42.0443 87.5252 41.0915 86.076 40.5111C81.9876 38.8685 77.7459 38.007 73.3326 37.9632C71.6462 37.9486 70.4452 36.8571 70.6168 35.459C70.803 33.9222 71.7082 33.1739 73.3472 33.1703C78.9542 33.152 84.28 34.3603 89.3796 36.6344C93.7454 38.5837 97.6111 41.2704 101.028 44.6214C102.243 45.8151 103.689 46.3261 105.346 45.5887C106.788 44.9463 107.624 43.8366 107.712 41.5989ZM65.6341 73.032C65.6633 71.0791 64.0644 69.4401 62.0969 69.4109C60.1805 69.3817 58.4977 71.028 58.4648 72.9627C58.4319 74.8681 60.0892 76.5546 62.0312 76.5838C63.9695 76.6166 65.6049 75.0032 65.6341 73.032ZM71.1899 65.6328C71.1643 67.6551 72.6756 69.2539 74.6431 69.2868C76.5705 69.3196 78.2533 67.6989 78.3007 65.7642C78.3446 63.8478 76.7129 62.154 74.7782 62.1102C72.8106 62.0664 71.2154 63.636 71.1899 65.6328ZM71.1899 80.2779C71.1826 82.2929 72.7194 83.8808 74.6906 83.8845C76.6216 83.8918 78.2861 82.2418 78.3007 80.3145C78.3117 78.3871 76.6654 76.7262 74.7307 76.7079C72.7595 76.6933 71.1972 78.2702 71.1899 80.2779Z" fill="white"/>
<path d="M99.9658 78.0585C97.3741 78.0585 94.8882 78.1206 92.406 78.0403C89.8945 77.9563 88.2008 76.6495 87.478 74.4447C86.8392 72.499 87.4817 70.4001 89.1462 69.0787C90.1866 68.2537 91.4168 67.9398 92.7163 67.9361C99.2832 67.9252 105.85 67.8704 112.414 67.9507C117.769 68.0128 120.835 71.9332 120.269 77.2481C119.247 86.9142 115.852 95.5546 109.65 103.038C102.083 112.164 92.4863 117.891 80.7358 119.742C65.0941 122.202 51.5112 117.855 39.9761 107.035C38.8043 105.936 37.9903 104.706 38.4393 103.027C39.2424 100.045 42.7102 99.2488 45.1048 101.574C48.6274 104.994 52.6063 107.699 57.0999 109.656C61.9913 111.788 67.1018 112.886 72.4423 112.897C74.3441 112.901 75.472 112.029 75.5268 110.536C75.5779 109.127 74.3696 108.09 72.5883 108.013C68.5145 107.842 64.5283 107.188 60.6955 105.75C57.8482 104.684 56.7056 102.757 57.5708 100.556C58.4943 98.212 60.3669 97.6061 63.3273 98.6902C78.615 104.286 94.9795 95.9744 99.4584 80.3327C99.6519 79.6428 99.7724 78.9309 99.9658 78.0585Z" fill="#47CE55"/>
<path d="M107.711 41.5989C107.624 43.8365 106.788 44.9463 105.342 45.5887C103.685 46.3261 102.24 45.815 101.024 44.6214C97.6072 41.2704 93.7415 38.5801 89.3757 36.6344C84.2799 34.3603 78.9504 33.152 73.3434 33.1703C71.7044 33.1739 70.7991 33.9222 70.613 35.459C70.4451 36.8571 71.6424 37.9449 73.3288 37.9632C77.7421 38.007 81.9838 38.8684 86.0722 40.5111C87.5214 41.0915 88.5398 42.0442 88.6785 43.6978C88.9486 46.9065 86.2948 48.7244 83.0533 47.5051C76.041 44.8696 69.0105 44.7966 62.177 47.8738C53.0694 51.9768 47.5501 59.0183 45.9732 68.9728C45.7979 70.0679 45.484 70.5388 44.2757 70.5242C38.5009 70.4658 32.7224 70.4549 26.9476 70.5279C25.5714 70.5461 25.4692 69.9073 25.5823 68.867C26.703 58.5766 30.4629 49.4252 37.3584 41.6317C44.9219 33.0863 54.358 27.7531 65.6047 26.074C79.7717 23.9568 92.5333 27.5049 103.63 36.6892C104.565 37.463 105.477 38.2734 106.343 39.1276C107.189 39.9599 107.766 40.9491 107.711 41.5989Z" fill="#0B735A"/>
</svg>
